<?xml version="1.0" encoding="UTF-8"?>
<!DOCTYPE svg PUBLIC "-//W3C//DTD SVG 1.1//EN" "http://www.w3.org/Graphics/SVG/1.1/DTD/svg11.dtd">
<!-- Creator: CorelDRAW 2020 (64-Bit) -->
<svg xmlns="http://www.w3.org/2000/svg" xml:space="preserve" width="127.33mm" height="59.0947mm" version="1.1" style="shape-rendering:geometricPrecision; text-rendering:geometricPrecision; image-rendering:optimizeQuality; fill-rule:evenodd; clip-rule:evenodd"
viewBox="0 0 13979.15 6487.83"
 xmlns:xlink="http://www.w3.org/1999/xlink"
 xmlns:xodm="http://www.corel.com/coreldraw/odm/2003">
 <defs>
  <style type="text/css">
   <![CDATA[
    .fil2 {fill:#8A5D3B;fill-rule:nonzero}
    .fil3 {fill:#A87C4F;fill-rule:nonzero}
    .fil1 {fill:#E7B35A;fill-rule:nonzero}
    .fil0 {fill:white;fill-rule:nonzero}
   ]]>
  </style>
 </defs>
 <g id="Capa_x0020_1">
  <metadata id="CorelCorpID_0Corel-Layer"/>
  <g id="_1454736578800">
   <path class="fil0" d="M6350.21 0l-1299.78 0.15c-54.47,2.62 -92.53,42.62 -92.53,97.14l0 113.15c0,54.51 38.06,94.5 96.36,97.32l460.66 0 0 1335.14c0,55.67 40.56,96.15 96.33,96.15l159.64 0c55.68,0 96.22,-40.48 96.22,-96.15l0 -1335.17 486.78 -0.21c54.37,-2.57 92.29,-42.56 92.29,-97.07l0 -113.15c0,-56.4 -40.4,-97.29 -95.96,-97.29z"/>
   <path class="fil0" d="M7918 0l-159.79 0c-55.68,0 -96.22,40.9 -96.22,97.29l0 630.58 -738.57 0 0 -630.58c0,-56.4 -40.43,-97.29 -96.27,-97.29l-159.6 0c-55.87,0 -96.17,40.9 -96.17,97.29l0 1545.6c0,55.67 40.3,96.15 96.17,96.15l159.6 0c55.84,0 96.27,-40.48 96.27,-96.15l0 -608.32 738.57 0 0 608.32c0,55.67 40.53,96.15 96.22,96.15l159.79 0c55.62,0 96.17,-40.48 96.17,-96.15l0 -1545.6c0,-56.4 -40.56,-97.29 -96.17,-97.29z"/>
   <path class="fil0" d="M9518.08 307.75c55.66,0 96.12,-41.04 96.12,-97.32l0 -113.15c0,-56.4 -40.46,-97.29 -96.12,-97.29l-1100.75 0c-55.66,0 -96.26,40.9 -96.26,97.29l0 1545.6c0,55.67 40.6,96.15 96.26,96.15l1100.75 0c55.66,0 96.12,-40.48 96.12,-96.15l0 -114.18c0,-55.77 -40.46,-96.22 -96.12,-96.22l-844.92 0 0 -420.21 685.1 0c56.24,0 97.28,-40.94 97.28,-97.33l0 -113c0,-56.53 -41.04,-97.37 -97.28,-97.37l-685.1 0 0 -396.84 844.92 0z"/>
   <path class="fil0" d="M6299.98 3352.08l-147.15 0.1c-44.32,2.37 -80.13,31.57 -93.09,75.19 -54.16,173.47 -183.36,254.21 -406.54,254.21 -138.63,0 -248.87,-47.36 -337.53,-144.87 -89.19,-98.29 -134.38,-250.13 -134.38,-451.28 0,-201.47 44.67,-353.31 133.03,-451.59 87.53,-97.38 194.25,-144.68 326.47,-144.68 224.09,0.6 353.74,81.89 407.61,254.55 13.87,46.3 51.18,75.05 97.42,75.05l143.16 0c41.5,0 65.36,-20.59 75.84,-32.68 10.44,-12.31 27.14,-39.14 20.07,-83.36 -32.67,-165.41 -116.08,-295.39 -248.05,-386.63 -128.29,-88.71 -295.21,-133.58 -495.91,-133.58 -236.11,0 -432.82,81.93 -584.76,243.61 -150.73,160.37 -227.07,382.55 -227.07,660.36 0,277.9 76.85,500.04 228.32,660.05 152.6,161.06 353,242.85 595.77,242.85 301.16,0 525.19,-103.78 665.53,-308.11 52.15,-75.35 78.78,-154.46 78.78,-235.3 0,-54.47 -40.99,-93.9 -97.53,-93.9z"/>
   <path class="fil0" d="M7640.4 3536.85c-87.75,97.37 -194.65,144.73 -326.73,144.73 -132.07,0 -238.87,-47.36 -326.88,-144.73 -88.33,-98.24 -133.48,-250.07 -133.48,-451.42 0,-201.47 45.14,-353.21 133.48,-451.49 88.01,-97.42 194.97,-144.78 326.88,-144.78 132.07,0 238.97,47.35 326.73,144.78 88.55,98.28 133.48,250.02 133.48,451.49 0,201.35 -44.92,353.18 -133.48,451.42zm-326.73 -1354.33c-236.45,0 -433.37,81.93 -585.42,243.61 -150.52,160.37 -227.07,382.19 -227.07,659.3 0,277.04 76.25,498.92 226.62,659.79 152.24,161.97 349.36,244.17 585.87,244.17 236.66,0 433.47,-82.2 585.57,-244.17 150.57,-160.8 226.82,-382.68 226.82,-659.79 0,-277.11 -76.25,-498.94 -226.92,-659.3 -152,-161.67 -348.96,-243.61 -585.47,-243.61z"/>
   <path class="fil0" d="M9538.95 2215.85l-1104.42 0.14c-54.55,2.68 -92.37,42.58 -92.37,97.17l0 1545.57c0,55.67 40.39,96.27 96.27,96.27l159.6 0c55.72,0 96.17,-40.6 96.17,-96.27l0 -585.12 688.53 -0.1c54.97,-2.51 93.85,-42.51 93.85,-97.07l-0.1 -116.75c-2.57,-55.21 -42.75,-93.78 -97.22,-93.78l-685.06 0 0 -442.4 848.39 -0.07c54.36,-2.72 92.54,-42.66 92.54,-97.23l0 -113.06c0,-56.38 -40.46,-97.32 -96.17,-97.32z"/>
   <path class="fil0" d="M10979.25 2215.85l-1104.36 0.14c-54.56,2.68 -92.68,42.58 -92.68,97.17l0 1545.57c0,55.67 40.63,96.27 96.27,96.27l159.75 0c55.76,0 96.12,-40.6 96.12,-96.27l0 -585.12 688.54 -0.1c55.26,-2.51 93.93,-42.51 93.93,-97.07l-0.2 -116.75c-2.61,-55.21 -42.66,-93.78 -97.17,-93.78l-685.1 0 0 -442.4 848.59 -0.07c54.31,-2.72 92.48,-42.66 92.48,-97.23l0 -113.06c0,-56.38 -40.53,-97.32 -96.17,-97.32z"/>
   <path class="fil0" d="M12419.48 2215.85l-1100.64 0c-55.77,0 -96.43,40.94 -96.43,97.32l0 1545.57c0,55.67 40.65,96.27 96.43,96.27l1100.64 0c55.66,0 96.16,-40.6 96.16,-96.27l0 -114.28c0,-55.62 -40.5,-96.12 -96.16,-96.12l-844.82 0 0 -420.15 685.06 0c56.32,0 97.33,-40.99 97.33,-97.33l0 -113.16c0,-56.28 -41.01,-97.23 -97.33,-97.23l-685.06 0 0 -396.91 844.82 0c55.66,0 96.16,-40.91 96.16,-97.34l0 -113.06c0,-56.38 -40.5,-97.32 -96.16,-97.32z"/>
   <path class="fil0" d="M13882.93 2523.56c55.78,0 96.22,-40.91 96.22,-97.34l0 -113.06c0,-56.38 -40.43,-97.32 -96.22,-97.32l-1100.63 0c-55.66,0 -96.16,40.94 -96.16,97.32l0 1545.57c0,55.67 40.5,96.27 96.16,96.27l1100.63 0c55.78,0 96.22,-40.6 96.22,-96.27l0 -114.28c0,-55.62 -40.43,-96.12 -96.22,-96.12l-844.66 0 0 -420.15 684.91 0c56.49,0 97.38,-40.99 97.38,-97.33l0 -113.16c0,-56.28 -40.9,-97.23 -97.38,-97.23l-684.91 0 0 -396.91 844.66 0z"/>
   <path class="fil0" d="M5742.91 5997.53c53.15,0 91.07,-8.38 113.62,-25.37 22.48,-16.9 33.77,-42.31 33.77,-76.25 0,-23.7 -9.11,-44.43 -27.83,-62.18 -18.51,-17.8 -55.91,-38.52 -112.4,-62.33 -119.11,-47.34 -223.5,-92.63 -312.96,-135.8 -89.41,-43.33 -163.48,-91.07 -222.34,-143.58 -58.79,-52.45 -102.66,-113.86 -131.7,-184.21 -28.81,-70.24 -43.43,-155.4 -43.43,-255.25 0,-94.86 13.96,-179.92 42.31,-255.32 28.09,-75.34 74.03,-139.74 137.72,-193.04 63.59,-53.35 148.2,-94 253.71,-121.98 105.49,-27.97 235.69,-41.8 390.36,-41.8 140.19,0 272.16,14.72 396.35,44.36 124,29.66 227.24,69.09 309.38,118.15l0 454.65 -507.5 0c0,-49.05 -12.97,-82.55 -38.68,-100.28 -25.82,-17.92 -57.33,-26.69 -94.31,-26.69 -53.1,0 -91.36,7.26 -114.83,21.58 -23.4,14.48 -35.03,39.39 -35.03,74.89 0,28.91 12.39,49.93 37.51,63.53 24.86,13.57 62.38,28.91 112.34,45.79 93.45,32.13 181.6,66.01 264.7,101.62 82.97,35.55 155.92,79.57 218.71,132.02 62.73,52.53 112.45,116.08 148.66,190.62 36.16,74.42 54.42,165.94 54.42,274.27 0,220.16 -67.79,384.1 -203.08,491.57 -135.44,107.6 -333.42,161.31 -594.54,161.31 -148.3,0 -290.96,-13.51 -427.87,-40.64 -136.92,-27.08 -246.49,-59.31 -328.65,-96.51l0 -502.97 531.65 0c0,50.83 9.74,88.44 28.91,113 19.47,24.61 59.75,36.82 121.03,36.82z"/>
   <polygon class="fil0" points="7763.29,4475.87 8708.45,4475.87 8708.45,4892.45 8563.38,4892.45 8563.38,6035.69 8708.45,6035.69 8708.45,6452.23 7763.29,6452.23 7763.29,6035.69 7886.58,6035.69 7886.58,5616.44 7524.22,5616.44 7524.22,6035.69 7647.26,6035.69 7647.26,6452.23 6702.39,6452.23 6702.39,6035.69 6847.41,6035.69 6847.41,4892.45 6702.39,4892.45 6702.39,4475.87 7647.26,4475.87 7647.26,4892.45 7524.22,4892.45 7524.22,5278.67 7886.58,5278.67 7886.58,4892.45 7763.29,4892.45 "/>
   <path class="fil0" d="M9689.59 6035.69c54.66,0 95.8,-14.82 123.13,-44.47 27.49,-29.55 41.12,-77.45 41.12,-143.51l0 -767.15c0,-66.07 -13.62,-113.87 -41.12,-143.68 -27.33,-29.5 -68.46,-44.43 -123.13,-44.43 -54.88,0 -96.02,14.93 -123.31,44.43 -27.37,29.81 -41.29,77.61 -41.29,143.68l0 767.15c0,66.06 13.92,113.96 41.29,143.51 27.29,29.65 68.43,44.47 123.31,44.47zm923.22 -571.65c0,186.33 -21.89,344.27 -65.4,473.82 -43.27,129.5 -105.04,234.94 -184.83,316.3 -79.78,81.23 -176.86,140.48 -291.26,177.79 -114.43,37.23 -241.54,55.88 -381.73,55.88 -140.45,0 -267.53,-18.65 -381.99,-55.88 -114.47,-37.31 -211.34,-96.56 -291.12,-177.79 -79.88,-81.35 -141.46,-186.79 -185.02,-316.3 -43.38,-129.55 -65.05,-287.49 -65.05,-473.82 0,-184.45 21.67,-341.95 65.05,-472.45 43.56,-130.46 105.14,-236.32 185.02,-317.49 79.78,-81.3 176.65,-140.65 291.12,-177.87 114.46,-37.26 241.54,-55.82 381.99,-55.82 140.19,0 267.3,18.55 381.73,55.82 114.41,37.22 211.48,96.57 291.26,177.87 79.78,81.18 141.56,187.03 184.83,317.49 43.51,130.49 65.4,287.99 65.4,472.45z"/>
   <path class="fil0" d="M11593.97 5309.08c45.13,0 79.88,-12.61 103.94,-37.96 24.31,-25.47 36.25,-66.92 36.25,-124.66l0 -91.43c0,-57.54 -11.69,-98.93 -35.03,-124.4 -23.2,-25.42 -58.35,-38.17 -105.15,-38.17l-82.29 0 0 416.63 82.29 0zm149.83 1143.16l-1053.59 0 0 -416.54 144.83 0 0 -1143.24 -144.83 0 0 -416.58 1085.05 0c98.25,0 187.35,10.63 267.02,31.76 79.73,21.23 146.95,55.48 201.81,102.93 54.82,47.35 97.03,109.17 126.94,185.42 29.74,76.1 44.77,168.53 44.77,276.89 0,110.08 -15.03,202.79 -44.77,278.11 -29.91,75.49 -72.12,136.82 -126.94,184.21 -54.86,47.5 -122.08,81.76 -201.81,102.88 -79.67,21.28 -168.78,31.76 -267.02,31.76l-263.57 0 0 365.85 232.11 0 0 416.54z"/>
   <polygon class="fil1" points="10477.11,1319.75 12005.67,1319.75 12005.67,1254.84 10477.11,1254.84 "/>
   <polygon class="fil1" points="10391.28,743.51 11616.53,743.51 11616.53,678.54 10391.28,678.54 "/>
   <polygon class="fil1" points="10671.61,443.17 12273.75,443.17 12273.75,378.37 10671.61,378.37 "/>
   <polygon class="fil1" points="10127.83,1044.32 12439.7,1044.32 12439.7,979.31 10127.83,979.31 "/>
   <path class="fil2" d="M3768.4 3365.34c-13.67,-151.08 -62.42,-252.69 -144.82,-302.06 -59.5,-35.6 -130.87,-42.51 -195.86,-37.98l0.1 7.31c0,293.3 -66.71,568.13 -182.5,803.31 406.19,-51.63 558.33,-82.3 523.08,-470.59z"/>
   <path class="fil2" d="M2296.17 282.31c142.21,608 309.68,1530.67 278.91,2404.28l820.96 0c9.94,52.81 17.39,106.71 22.8,161.17 93.79,-6.15 200.59,5.71 295.4,62.13 134.59,80.33 212.5,228.04 231.66,439.52 51.79,571.11 -286.74,614.03 -715.32,667.97 -31.72,3.89 -64.35,8.18 -98.08,12.52 -231.82,341.45 -580.33,562.67 -971.94,575.99 -94.66,616.78 -25.67,1287.72 92.23,1871.46 1207.74,-97.88 2164.25,-1447.97 2164.25,-3099.53 0,-1631.74 -934.11,-2968.78 -2120.89,-3095.5z"/>
   <path class="fil3" d="M818.14 3032.62c0,-118.95 10.84,-234.68 31.72,-346.04l1244.05 0c29.7,-847.07 -126.73,-1740.05 -265.71,-2347.71 -1044.32,295.81 -1828.21,1543.8 -1828.21,3038.92 0,1460.12 747.8,2684.26 1755.28,3016.68 -112.85,-592.07 -171.81,-1263.92 -61.67,-1875.01 -509.62,-214.22 -875.47,-798.92 -875.47,-1486.86z"/>
  </g>
 </g>
</svg>
