<svg xmlns="http://www.w3.org/2000/svg" width="481.247" height="223.35" viewBox="0 0 13979.15 6487.83" shape-rendering="geometricPrecision" text-rendering="geometricPrecision" image-rendering="optimizeQuality" fill-rule="evenodd" clip-rule="evenodd"><defs><style>.fil2{fill:#8a5d3b;fill-rule:nonzero}</style></defs><g id="Capa_x0020_1"><g id="_1454736578800"><path d="M6350.21 0L5050.43.15c-54.47 2.62-92.53 42.62-92.53 97.14v113.15c0 54.51 38.06 94.5 96.36 97.32h460.66V1642.9c0 55.67 40.56 96.15 96.33 96.15h159.64c55.68 0 96.22-40.48 96.22-96.15V307.73l486.78-.21c54.37-2.57 92.29-42.56 92.29-97.07V97.3c0-56.4-40.4-97.29-95.96-97.29zM7918 0h-159.79c-55.68 0-96.22 40.9-96.22 97.29v630.58h-738.57V97.29c0-56.4-40.43-97.29-96.27-97.29h-159.6c-55.87 0-96.17 40.9-96.17 97.29v1545.6c0 55.67 40.3 96.15 96.17 96.15h159.6c55.84 0 96.27-40.48 96.27-96.15v-608.32h738.57v608.32c0 55.67 40.53 96.15 96.22 96.15H7918c55.62 0 96.17-40.48 96.17-96.15V97.29c0-56.4-40.56-97.29-96.17-97.29zm1600.08 307.75c55.66 0 96.12-41.04 96.12-97.32V97.28c0-56.4-40.46-97.29-96.12-97.29H8417.33c-55.66 0-96.26 40.9-96.26 97.29v1545.6c0 55.67 40.6 96.15 96.26 96.15h1100.75c55.66 0 96.12-40.48 96.12-96.15V1528.7c0-55.77-40.46-96.22-96.12-96.22h-844.92v-420.21h685.1c56.24 0 97.28-40.94 97.28-97.33v-113c0-56.53-41.04-97.37-97.28-97.37h-685.1V307.73h844.92zm-3218.1 3044.33l-147.15.1c-44.32 2.37-80.13 31.57-93.09 75.19-54.16 173.47-183.36 254.21-406.54 254.21-138.63 0-248.87-47.36-337.53-144.87-89.19-98.29-134.38-250.13-134.38-451.28 0-201.47 44.67-353.31 133.03-451.59 87.53-97.38 194.25-144.68 326.47-144.68 224.09.6 353.74 81.89 407.61 254.55 13.87 46.3 51.18 75.05 97.42 75.05h143.16c41.5 0 65.36-20.59 75.84-32.68 10.44-12.31 27.14-39.14 20.07-83.36-32.67-165.41-116.08-295.39-248.05-386.63-128.29-88.71-295.21-133.58-495.91-133.58-236.11 0-432.82 81.93-584.76 243.61-150.73 160.37-227.07 382.55-227.07 660.36 0 277.9 76.85 500.04 228.32 660.05 152.6 161.06 353 242.85 595.77 242.85 301.16 0 525.19-103.78 665.53-308.11 52.15-75.35 78.78-154.46 78.78-235.3 0-54.47-40.99-93.9-97.53-93.9zm1340.42 184.77c-87.75 97.37-194.65 144.73-326.73 144.73-132.07 0-238.87-47.36-326.88-144.73-88.33-98.24-133.48-250.07-133.48-451.42 0-201.47 45.14-353.21 133.48-451.49 88.01-97.42 194.97-144.78 326.88-144.78 132.07 0 238.97 47.35 326.73 144.78 88.55 98.28 133.48 250.02 133.48 451.49 0 201.35-44.92 353.18-133.48 451.42zm-326.73-1354.33c-236.45 0-433.37 81.93-585.42 243.61-150.52 160.37-227.07 382.19-227.07 659.3 0 277.04 76.25 498.92 226.62 659.79 152.24 161.97 349.36 244.17 585.87 244.17 236.66 0 433.47-82.2 585.57-244.17 150.57-160.8 226.82-382.68 226.82-659.79 0-277.11-76.25-498.94-226.92-659.3-152-161.67-348.96-243.61-585.47-243.61zm2225.28 33.33l-1104.42.14c-54.55 2.68-92.37 42.58-92.37 97.17v1545.57c0 55.67 40.39 96.27 96.27 96.27h159.6c55.72 0 96.17-40.6 96.17-96.27v-585.12l688.53-.1c54.97-2.51 93.85-42.51 93.85-97.07l-.1-116.75c-2.57-55.21-42.75-93.78-97.22-93.78H8694.2v-442.4l848.39-.07c54.36-2.72 92.54-42.66 92.54-97.23v-113.06c0-56.38-40.46-97.32-96.17-97.32zm1440.3 0l-1104.36.14c-54.56 2.68-92.68 42.58-92.68 97.17v1545.57c0 55.67 40.63 96.27 96.27 96.27h159.75c55.76 0 96.12-40.6 96.12-96.27v-585.12l688.54-.1c55.26-2.51 93.93-42.51 93.93-97.07l-.2-116.75c-2.61-55.21-42.66-93.78-97.17-93.78h-685.1v-442.4l848.59-.07c54.31-2.72 92.48-42.66 92.48-97.23v-113.06c0-56.38-40.53-97.32-96.17-97.32zm1440.23 0h-1100.64c-55.77 0-96.43 40.94-96.43 97.32v1545.57c0 55.67 40.65 96.27 96.43 96.27h1100.64c55.66 0 96.16-40.6 96.16-96.27v-114.28c0-55.62-40.5-96.12-96.16-96.12h-844.82v-420.15h685.06c56.32 0 97.33-40.99 97.33-97.33V3017.7c0-56.28-41.01-97.23-97.33-97.23h-685.06v-396.91h844.82c55.66 0 96.16-40.91 96.16-97.34v-113.06c0-56.38-40.5-97.32-96.16-97.32zm1463.45 307.71c55.78 0 96.22-40.91 96.22-97.34v-113.06c0-56.38-40.43-97.32-96.22-97.32H12782.3c-55.66 0-96.16 40.94-96.16 97.32v1545.57c0 55.67 40.5 96.27 96.16 96.27h1100.63c55.78 0 96.22-40.6 96.22-96.27v-114.28c0-55.62-40.43-96.12-96.22-96.12h-844.66v-420.15h684.91c56.49 0 97.38-40.99 97.38-97.33v-113.16c0-56.28-40.9-97.23-97.38-97.23h-684.91v-396.91h844.66zM5742.91 5997.53c53.15 0 91.07-8.38 113.62-25.37 22.48-16.9 33.77-42.31 33.77-76.25 0-23.7-9.11-44.43-27.83-62.18-18.51-17.8-55.91-38.52-112.4-62.33-119.11-47.34-223.5-92.63-312.96-135.8-89.41-43.33-163.48-91.07-222.34-143.58-58.79-52.45-102.66-113.86-131.7-184.21-28.81-70.24-43.43-155.4-43.43-255.25 0-94.86 13.96-179.92 42.31-255.32 28.09-75.34 74.03-139.74 137.72-193.04 63.59-53.35 148.2-94 253.71-121.98 105.49-27.97 235.69-41.8 390.36-41.8 140.19 0 272.16 14.72 396.35 44.36 124 29.66 227.24 69.09 309.38 118.15v454.65h-507.5c0-49.05-12.97-82.55-38.68-100.28-25.82-17.92-57.33-26.69-94.31-26.69-53.1 0-91.36 7.26-114.83 21.58-23.4 14.48-35.03 39.39-35.03 74.89 0 28.91 12.39 49.93 37.51 63.53 24.86 13.57 62.38 28.91 112.34 45.79 93.45 32.13 181.6 66.01 264.7 101.62 82.97 35.55 155.92 79.57 218.71 132.02 62.73 52.53 112.45 116.08 148.66 190.62 36.16 74.42 54.42 165.94 54.42 274.27 0 220.16-67.79 384.1-203.08 491.57-135.44 107.6-333.42 161.31-594.54 161.31-148.3 0-290.96-13.51-427.87-40.64-136.92-27.08-246.49-59.31-328.65-96.51v-502.97h531.65c0 50.83 9.74 88.44 28.91 113 19.47 24.61 59.75 36.82 121.03 36.82zm2020.38-1521.66h945.16v416.58h-145.07v1143.24h145.07v416.54h-945.16v-416.54h123.29v-419.25h-362.36v419.25h123.04v416.54h-944.87v-416.54h145.02V4892.45h-145.02v-416.58h944.87v416.58h-123.04v386.22h362.36v-386.22h-123.29zm1926.3 1559.82c54.66 0 95.8-14.82 123.13-44.47 27.49-29.55 41.12-77.45 41.12-143.51v-767.15c0-66.07-13.62-113.87-41.12-143.68-27.33-29.5-68.46-44.43-123.13-44.43-54.88 0-96.02 14.93-123.31 44.43-27.37 29.81-41.29 77.61-41.29 143.68v767.15c0 66.06 13.92 113.96 41.29 143.51 27.29 29.65 68.43 44.47 123.31 44.47zm923.22-571.65c0 186.33-21.89 344.27-65.4 473.82-43.27 129.5-105.04 234.94-184.83 316.3-79.78 81.23-176.86 140.48-291.26 177.79-114.43 37.23-241.54 55.88-381.73 55.88-140.45 0-267.53-18.65-381.99-55.88-114.47-37.31-211.34-96.56-291.12-177.79-79.88-81.35-141.46-186.79-185.02-316.3-43.38-129.55-65.05-287.49-65.05-473.82 0-184.45 21.67-341.95 65.05-472.45 43.56-130.46 105.14-236.32 185.02-317.49 79.78-81.3 176.65-140.65 291.12-177.87 114.46-37.26 241.54-55.82 381.99-55.82 140.19 0 267.3 18.55 381.73 55.82 114.41 37.22 211.48 96.57 291.26 177.87 79.78 81.18 141.56 187.03 184.83 317.49 43.51 130.49 65.4 287.99 65.4 472.45zm981.16-154.96c45.13 0 79.88-12.61 103.94-37.96 24.31-25.47 36.25-66.92 36.25-124.66v-91.43c0-57.54-11.69-98.93-35.03-124.4-23.2-25.42-58.35-38.17-105.15-38.17h-82.29v416.63h82.29zm149.83 1143.16h-1053.59V6035.7h144.83V4892.46h-144.83v-416.58h1085.05c98.25 0 187.35 10.63 267.02 31.76 79.73 21.23 146.95 55.48 201.81 102.93 54.82 47.35 97.03 109.17 126.94 185.42 29.74 76.1 44.77 168.53 44.77 276.89 0 110.08-15.03 202.79-44.77 278.11-29.91 75.49-72.12 136.82-126.94 184.21-54.86 47.5-122.08 81.76-201.81 102.88-79.67 21.28-168.78 31.76-267.02 31.76h-263.57v365.85h232.11v416.54z" fill="#fff" fill-rule="nonzero"/><path d="M10477.11 1319.75h1528.56v-64.91h-1528.56zm-85.83-576.24h1225.25v-64.97h-1225.25zm280.33-300.34h1602.14v-64.8h-1602.14zm-543.78 601.15h2311.87v-65.01h-2311.87z" fill="#e7b35a" fill-rule="nonzero"/><path class="fil2" d="M3768.4 3365.34c-13.67-151.08-62.42-252.69-144.82-302.06-59.5-35.6-130.87-42.51-195.86-37.98l.1 7.31c0 293.3-66.71 568.13-182.5 803.31 406.19-51.63 558.33-82.3 523.08-470.59z"/><path class="fil2" d="M2296.17 282.31c142.21 608 309.68 1530.67 278.91 2404.28h820.96c9.94 52.81 17.39 106.71 22.8 161.17 93.79-6.15 200.59 5.71 295.4 62.13 134.59 80.33 212.5 228.04 231.66 439.52 51.79 571.11-286.74 614.03-715.32 667.97-31.72 3.89-64.35 8.18-98.08 12.52-231.82 341.45-580.33 562.67-971.94 575.99-94.66 616.78-25.67 1287.72 92.23 1871.46 1207.74-97.88 2164.25-1447.97 2164.25-3099.53 0-1631.74-934.11-2968.78-2120.89-3095.5z"/><path d="M818.14 3032.62c0-118.95 10.84-234.68 31.72-346.04h1244.05c29.7-847.07-126.73-1740.05-265.71-2347.71C783.88 634.68-.01 1882.67-.01 3377.79c0 1460.12 747.8 2684.26 1755.28 3016.68-112.85-592.07-171.81-1263.92-61.67-1875.01-509.62-214.22-875.47-798.92-875.47-1486.86z" fill="#a87c4f" fill-rule="nonzero"/></g></g></svg>